<svg width="72" height="72" viewBox="0 0 72 72" fill="none" xmlns="http://www.w3.org/2000/svg">
<g clip-path="url(#clip0_119_3375)">
<path d="M36 0C26.4544 0 17.2913 3.79519 10.5469 10.5441C3.79554 17.2956 0.00187014 26.452 0 36C0 45.5439 3.79688 54.7071 10.5469 61.4559C17.2913 68.2048 26.4544 72 36 72C45.5456 72 54.7088 68.2048 61.4531 61.4559C68.2031 54.7071 72 45.5439 72 36C72 26.4561 68.2031 17.2929 61.4531 10.5441C54.7088 3.79519 45.5456 0 36 0Z" fill="url(#paint0_linear_119_3375)"/>
<path d="M16.2965 35.6198C26.7928 31.0478 33.7903 28.0333 37.289 26.577C47.2903 22.4184 49.3659 21.6962 50.7215 21.6717C51.0196 21.6669 51.6834 21.7406 52.1165 22.0908C52.4765 22.3861 52.5778 22.7855 52.6284 23.0659C52.6734 23.346 52.7353 23.9844 52.6846 24.4828C52.1446 30.1753 49.799 43.9892 48.6065 50.3651C48.1059 53.0629 47.1103 53.9674 46.1484 54.0557C44.0559 54.2481 42.4696 52.6742 40.4446 51.3472C37.2778 49.2699 35.489 47.9773 32.4121 45.9506C28.8571 43.6084 31.1634 42.3208 33.1884 40.2171C33.7171 39.6664 42.9309 31.2879 43.1053 30.528C43.1278 30.4329 43.1503 30.0786 42.9365 29.8918C42.7284 29.7045 42.419 29.7686 42.194 29.8193C41.8734 29.8913 36.8165 33.237 27.0065 39.8559C25.5721 40.8426 24.2728 41.3235 23.1028 41.2982C21.8203 41.2706 19.3453 40.5714 17.5059 39.9741C15.2559 39.2411 13.4615 38.8536 13.619 37.6088C13.6978 36.9608 14.5921 36.2976 16.2965 35.6198Z" fill="white"/>
</g>
<defs>
<linearGradient id="paint0_linear_119_3375" x1="3600" y1="0" x2="3600" y2="7200" gradientUnits="userSpaceOnUse">
<stop stop-color="#2AABEE"/>
<stop offset="1" stop-color="#229ED9"/>
</linearGradient>
<clipPath id="clip0_119_3375">
<rect width="72" height="72" fill="white"/>
</clipPath>
</defs>
</svg>
