<svg width="72" height="72" viewBox="0 0 72 72" fill="none" xmlns="http://www.w3.org/2000/svg">
<g clip-path="url(#clip0_119_3378)">
<path d="M65.25 0H6.75C3.0375 0 0 3.0375 0 6.75V65.25C0 68.9625 3.0375 72 6.75 72H65.25C68.9625 72 72 68.9625 72 65.25V6.75C72 3.0375 68.9625 0 65.25 0ZM58.3155 50.4L51.732 50.499C51.732 50.499 50.31 50.7825 48.456 49.5C45.9945 47.8125 43.6725 43.4115 41.859 43.9875C40.032 44.5635 40.086 48.5145 40.086 48.5145C40.086 48.5145 40.0995 49.3605 39.6765 49.806C39.2265 50.2965 38.3265 50.3955 38.3265 50.3955H35.388C35.388 50.3955 28.89 50.7915 23.166 44.8245C16.92 38.3265 11.412 25.434 11.412 25.434C11.412 25.434 11.088 24.588 11.439 24.183C11.8305 23.7195 12.888 23.6925 12.888 23.6925L19.935 23.652C19.935 23.652 20.5965 23.7645 21.0735 24.1155C21.4695 24.399 21.6765 24.9435 21.6765 24.9435C21.6765 24.9435 22.815 27.828 24.3225 30.429C27.261 35.505 28.638 36.6165 29.637 36.081C31.086 35.2935 30.6495 28.8945 30.6495 28.8945C30.6495 28.8945 30.6765 26.5725 29.9205 25.5465C29.331 24.7455 28.2195 24.507 27.7425 24.4485C27.3465 24.39 27.9945 23.4765 28.8405 23.058C30.105 22.437 32.3415 22.3965 34.9875 22.4235C37.0395 22.437 37.647 22.5765 38.448 22.761C40.8825 23.3505 40.05 25.614 40.05 31.0455C40.05 32.7915 39.7395 35.235 40.9905 36.036C41.526 36.387 42.8445 36.09 46.152 30.483C47.7135 27.8235 48.8925 24.705 48.8925 24.705C48.8925 24.705 49.1445 24.1425 49.5405 23.904C49.95 23.6655 50.499 23.7375 50.499 23.7375L57.9105 23.697C57.9105 23.697 60.1335 23.4315 60.498 24.444C60.876 25.497 59.67 27.9585 56.646 31.995C51.6825 38.619 51.12 37.998 55.2555 41.823C59.193 45.4815 60.0075 47.2635 60.1515 47.4885C61.7535 50.1885 58.3245 50.4 58.3245 50.4H58.3155Z" fill="#4680C2"/>
</g>
<defs>
<clipPath id="clip0_119_3378">
<rect width="72" height="72" rx="36" fill="white"/>
</clipPath>
</defs>
</svg>
