<svg width="24" height="24" viewBox="0 0 24 24" fill="none" xmlns="http://www.w3.org/2000/svg">
<g clip-path="url(#clip0_164_6316)">
<path d="M23.7823 17.735C23.3043 16.8455 21.363 14.9293 21.363 14.9293C19.5725 13.2531 19.5725 13.1411 21.2578 10.9322L22.0878 9.83687C23.9469 7.31925 24.0658 6.48919 23.9652 6.21708C23.908 6.04558 23.6039 5.97926 23.1603 5.97926H19.0877C18.9892 5.97808 18.8919 6.00084 18.8042 6.04558C18.6914 6.11283 18.595 6.28096 18.5561 6.34878C18.5541 6.35244 18.5521 6.3558 18.5504 6.35885C18.1678 7.3615 17.7131 8.33512 17.1898 9.27206C15.4931 12.183 14.8665 12.183 14.6585 12.183C14.5662 12.1827 14.4759 12.1565 14.3978 12.1075C13.8001 11.7129 13.826 10.7539 13.8488 9.90709L13.849 9.90089C13.849 9.82072 13.8508 9.74297 13.8526 9.66766C13.8542 9.59691 13.8558 9.52831 13.8558 9.46186C13.8558 8.83074 13.8764 8.29566 13.897 7.82232C13.9633 6.15534 13.9473 5.66828 13.1927 5.48763C12.82 5.39388 12.5547 5.32756 11.5257 5.31384H10.9975C10.0485 5.31384 9.09271 5.35272 8.56221 5.61797C8.38171 5.70839 8.22563 5.84094 8.10716 6.00442C8.39985 6.0593 8.88234 6.20793 9.16589 6.59895C9.56148 7.1386 9.56377 8.26364 9.56377 8.37111C9.59807 8.94278 9.74213 11.6982 8.96923 12.1281C8.87151 12.1809 8.76244 12.2091 8.65139 12.2104C8.05914 12.2104 7.32055 11.3506 6.11547 9.23319C5.45467 8.0783 5.02346 7.03731 4.8492 6.6166C4.82748 6.56417 4.80975 6.52137 4.79607 6.48919C4.69088 6.23994 4.53996 5.95868 4.07805 5.95868H0.613756C0.227309 5.95868 -0.127124 6.18049 0.0443756 6.59438C0.0672422 6.65383 2.78837 13.0519 5.81135 16.2418C8.28095 18.8463 11.0684 19.0338 11.6035 19.0338H13.1744C13.4648 19.0338 13.8764 18.7343 13.8764 18.2129C13.8764 16.5437 14.4389 15.9171 14.878 15.7753C14.9481 15.7525 15.0214 15.7409 15.0952 15.741C15.676 15.741 16.2523 16.4087 16.9177 17.1816L16.9202 17.1846C17.3653 17.7027 17.8218 18.2341 18.2851 18.5582C18.8888 18.9744 19.3873 19.0361 19.6251 19.0361H23.0551C23.2426 19.0224 23.7914 18.8669 23.9515 18.5514C24.0475 18.3616 24.0018 18.1077 23.8074 17.7807C23.8074 17.7807 23.8053 17.7764 23.8041 17.7737C23.7996 17.7637 23.793 17.7494 23.7823 17.735Z" fill="#0F77FF"/>
</g>
<defs>
<clipPath id="clip0_164_6316">
<rect width="24" height="24" fill="white"/>
</clipPath>
</defs>
</svg>
